<?xml version="1.0" standalone="no"?>
<!DOCTYPE svg PUBLIC "-//W3C//DTD SVG 20010904//EN"
 "http://www.w3.org/TR/2001/REC-SVG-20010904/DTD/svg10.dtd">
<svg version="1.0" xmlns="http://www.w3.org/2000/svg"
 width="1080.000000pt" height="1080.000000pt" viewBox="0 0 1080.000000 1080.000000"
 preserveAspectRatio="xMidYMid meet">

<g transform="translate(0.000000,1080.000000) scale(0.100000,-0.100000)"
fill="#000000" stroke="none">
<path d="M0 5400 l0 -5400 5400 0 5400 0 0 5400 0 5400 -5400 0 -5400 0 0
-5400z m4123 1998 c9 -24 106 -306 217 -628 110 -322 203 -592 206 -600 4 -8
102 273 218 625 l212 640 387 3 387 2 0 -74 0 -73 -82 -5 c-91 -5 -126 -18
-149 -51 -22 -34 -26 -1460 -5 -1512 20 -47 64 -65 161 -65 l75 0 0 -75 0 -75
-435 0 -435 0 0 74 0 73 60 6 c68 6 106 26 120 63 6 15 10 296 9 707 l-1 682
-63 -190 c-35 -104 -154 -466 -265 -802 l-201 -613 -97 0 -98 0 -274 801 -275
801 -3 -671 c-2 -737 -3 -724 57 -755 17 -9 58 -19 91 -23 l60 -6 0 -73 0 -74
-340 0 -341 0 3 73 3 72 85 5 c47 3 95 11 107 18 55 31 53 -5 53 789 0 546 -3
739 -12 758 -17 39 -62 57 -153 64 l-80 6 -3 59 c-2 32 -1 65 2 72 4 12 75 14
394 14 l389 0 16 -42z m2707 -32 l0 -73 -86 -6 c-99 -6 -132 -23 -151 -78 -9
-25 -12 -229 -12 -781 l-1 -748 265 0 c284 0 311 4 363 53 40 37 72 112 98
230 13 62 27 122 29 135 5 21 11 22 86 22 l81 0 -6 -162 c-4 -90 -9 -227 -12
-305 l-6 -143 -794 0 -794 0 0 75 0 75 75 0 c44 0 90 6 111 15 66 27 64 5 64
792 0 460 -4 721 -11 745 -14 52 -52 70 -156 76 l-83 5 0 73 0 74 470 0 470 0
0 -74z m524 -2746 c33 -12 37 -64 7 -80 -13 -7 -636 -10 -1941 -10 -1305 0
-1928 3 -1941 10 -28 16 -26 68 4 80 31 12 3838 13 3871 0z m-1444 -960 l0
-190 -35 0 -35 0 0 183 c0 101 3 187 7 190 3 4 19 7 35 7 l28 0 0 -190z m-725
145 c0 -24 -5 -31 -24 -33 -32 -5 -54 23 -40 50 7 13 19 18 37 16 23 -2 27 -8
27 -33z m-617 -81 c8 -14 10 -14 21 0 17 20 99 21 127 2 17 -12 22 -12 39 0
10 8 40 14 66 14 39 0 51 -5 68 -26 18 -23 21 -41 21 -135 l0 -109 -35 0 -35
0 0 89 c0 109 -4 121 -40 121 -43 0 -53 -23 -58 -121 l-4 -89 -29 0 -29 0 0
79 c0 104 -10 131 -50 131 -40 0 -50 -27 -50 -131 l0 -79 -35 0 -35 0 0 135 0
135 25 0 c13 0 28 -7 33 -16z m622 -119 l0 -135 -35 0 -35 0 0 135 0 135 35 0
35 0 0 -135z m260 119 c0 -14 2 -14 22 0 13 9 43 16 68 16 37 0 52 -5 71 -26
22 -23 24 -35 27 -135 l4 -109 -36 0 -36 0 0 79 c0 104 -10 131 -49 131 -47 0
-61 -30 -61 -127 l0 -83 -35 0 -35 0 0 135 0 135 30 0 c20 0 30 -5 30 -16z
m849 0 c26 -19 51 -71 51 -108 0 -25 -2 -25 -87 -28 -82 -3 -88 -4 -85 -23 6
-36 32 -47 95 -41 l58 6 -3 -28 c-3 -23 -9 -28 -45 -36 -120 -25 -197 48 -178
170 10 69 50 104 119 104 31 0 61 -6 75 -16z"/>
<path d="M6198 3679 c-10 -5 -18 -19 -18 -29 0 -17 7 -20 44 -20 52 0 61 9 40
38 -16 24 -39 27 -66 11z"/>
</g>
</svg>
